# Blender v2.79 (sub 0) OBJ File: ''
# www.blender.org
mtllib tile.mtl
o Iron_Plate
v -1.068334 -0.053675 -0.435734
v -1.068334 -0.053675 -0.435734
v -1.068334 -0.053675 -0.901658
v -1.068334 -0.053675 -0.901658
v -0.561920 -0.053675 -0.901658
v -0.561920 -0.053675 -0.901658
v -0.653038 -0.053682 -0.518465
v -0.653038 -0.053682 -0.518465
v -0.653038 -0.053682 -0.518465
v -1.068334 0.053675 -0.435734
v -1.068334 0.053675 -0.435734
v -1.068334 0.053675 -0.901658
v -1.068334 0.053675 -0.901658
v -0.561920 0.053675 -0.901658
v -0.561920 0.053675 -0.901658
v -0.653038 0.053682 -0.518465
v -0.653038 0.053682 -0.518465
v -0.653038 0.053682 -0.518465
v -0.842231 0.053675 -0.901658
v -0.842231 0.053675 -0.901658
v -0.842231 -0.053675 -0.901658
v -0.842231 -0.053675 -0.901658
v -0.844631 0.053682 -0.433485
v -0.844631 0.053682 -0.433485
v -0.844631 -0.053682 -0.433485
v -0.844631 -0.053682 -0.433485
v -1.068334 0.053675 -0.693388
v -1.068334 0.053675 -0.693388
v -1.068334 -0.053675 -0.693388
v -1.068334 -0.053675 -0.693388
v -0.564281 0.053682 -0.691174
v -0.564281 0.053682 -0.691174
v -0.564281 -0.053682 -0.691174
v -0.564281 -0.053682 -0.691174
v -0.844631 -0.053682 -0.691174
v -0.844631 0.053682 -0.691174
v 0.931680 -0.053675 -0.435734
v 0.931680 -0.053675 -0.435734
v 0.931680 -0.053675 -0.901658
v 0.931680 -0.053675 -0.901658
v 0.429855 -0.053675 -0.901658
v 0.429855 -0.053675 -0.901658
v 0.516384 -0.053682 -0.518465
v 0.516384 -0.053682 -0.518465
v 0.516384 -0.053682 -0.518465
v 0.931680 0.053675 -0.435734
v 0.931680 0.053675 -0.435734
v 0.931680 0.053675 -0.901658
v 0.931680 0.053675 -0.901658
v 0.429855 0.053675 -0.901658
v 0.429855 0.053675 -0.901658
v 0.516384 0.053682 -0.518465
v 0.516384 0.053682 -0.518465
v 0.516384 0.053682 -0.518465
v 0.710166 0.053675 -0.901658
v 0.710166 0.053675 -0.901658
v 0.710166 -0.053675 -0.901658
v 0.710166 -0.053675 -0.901658
v 0.707977 0.053682 -0.433485
v 0.707977 0.053682 -0.433485
v 0.707977 -0.053682 -0.433485
v 0.707977 -0.053682 -0.433485
v 0.931680 0.053675 -0.693388
v 0.931680 0.053675 -0.693388
v 0.931680 -0.053675 -0.693388
v 0.931680 -0.053675 -0.693388
v 0.427627 0.053682 -0.691174
v 0.427627 0.053682 -0.691174
v 0.427627 -0.053682 -0.691174
v 0.427627 -0.053682 -0.691174
v 0.707977 -0.053682 -0.691174
v 0.707977 0.053682 -0.691174
v -1.068334 -0.054108 0.634396
v -1.068334 -0.054108 0.634396
v -1.068334 -0.054108 1.098356
v -1.068334 -0.054108 1.098356
v -0.568209 -0.054108 1.098356
v -0.568209 -0.054108 1.098356
v -0.653038 -0.053682 0.715163
v -0.653038 -0.053682 0.715163
v -0.653038 -0.053682 0.715163
v -1.068334 0.054108 0.634396
v -1.068334 0.054108 0.634396
v -1.068334 0.054108 1.098356
v -1.068334 0.054108 1.098356
v -0.568209 0.054108 1.098356
v -0.568209 0.054108 1.098356
v -0.653038 0.053682 0.715163
v -0.653038 0.053682 0.715163
v -0.653038 0.053682 0.715163
v -0.850779 0.054108 1.098356
v -0.850779 0.054108 1.098356
v -0.850779 -0.054108 1.098356
v -0.850779 -0.054108 1.098356
v -0.844631 0.053682 0.630184
v -0.844631 0.053682 0.630184
v -0.844631 -0.053682 0.630184
v -0.844631 -0.053682 0.630184
v -1.068334 0.054108 0.894125
v -1.068334 0.054108 0.894125
v -1.068334 -0.054108 0.894125
v -1.068334 -0.054108 0.894125
v -0.564281 0.053682 0.887872
v -0.564281 0.053682 0.887872
v -0.564281 -0.053682 0.887872
v -0.564281 -0.053682 0.887872
v -0.844631 -0.053682 0.887872
v -0.844631 0.053682 0.887872
v 0.931680 -0.053675 0.627791
v 0.931680 -0.053675 0.627791
v 0.931680 -0.053675 1.098356
v 0.931680 -0.053675 1.098356
v 0.429855 -0.053675 1.098356
v 0.429855 -0.053675 1.098356
v 0.516384 -0.053682 0.715163
v 0.516384 -0.053682 0.715163
v 0.516384 -0.053682 0.715163
v 0.931680 0.053675 0.627791
v 0.931680 0.053675 0.627791
v 0.931680 0.053675 1.098356
v 0.931680 0.053675 1.098356
v 0.429855 0.053675 1.098356
v 0.429855 0.053675 1.098356
v 0.516384 0.053682 0.715163
v 0.516384 0.053682 0.715163
v 0.516384 0.053682 0.715163
v 0.710166 0.053675 1.098356
v 0.710166 0.053675 1.098356
v 0.710166 -0.053675 1.098356
v 0.710166 -0.053675 1.098356
v 0.707977 0.053682 0.630184
v 0.707977 0.053682 0.630184
v 0.707977 -0.053682 0.630184
v 0.707977 -0.053682 0.630184
v 0.931680 0.053675 0.885444
v 0.931680 0.053675 0.885444
v 0.931680 -0.053675 0.885444
v 0.931680 -0.053675 0.885444
v 0.427627 0.053682 0.887872
v 0.427627 0.053682 0.887872
v 0.427627 -0.053682 0.887872
v 0.427627 -0.053682 0.887872
v 0.707977 -0.053682 0.887872
v 0.707977 0.053682 0.887872
v -1.068327 0.030000 -0.901651
v -1.068327 0.030000 -0.901651
v -1.068327 -0.030000 -0.901651
v -1.068327 -0.030000 -0.901651
v 0.931673 0.030000 -0.901651
v 0.931673 0.030000 -0.901651
v -0.068327 0.030000 -0.901651
v -0.068327 0.030000 -0.901651
v 0.931673 -0.030000 -0.901651
v 0.931673 -0.030000 -0.901651
v -0.068327 -0.030000 -0.901651
v -0.068327 -0.030000 -0.901651
v -1.068327 0.030000 1.098349
v -1.068327 0.030000 1.098349
v -1.068327 0.030000 0.098349
v -1.068327 0.030000 0.098349
v -1.068327 0.030000 0.098349
v -1.068327 -0.030000 1.098349
v -1.068327 -0.030000 1.098349
v -1.068327 -0.030000 0.098349
v -1.068327 -0.030000 0.098349
v -1.068327 -0.030000 0.098349
v 0.931673 0.030000 1.098349
v 0.931673 0.030000 1.098349
v -0.068327 0.030000 1.098349
v -0.068327 0.030000 1.098349
v 0.931673 0.030000 0.098349
v 0.931673 0.030000 0.098349
v 0.931673 0.030000 0.098349
v -0.068327 0.030000 0.098349
v 0.931673 -0.030000 1.098349
v 0.931673 -0.030000 1.098349
v -0.068327 -0.030000 1.098349
v -0.068327 -0.030000 1.098349
v 0.931673 -0.030000 0.098349
v 0.931673 -0.030000 0.098349
v 0.931673 -0.030000 0.098349
v -0.068327 -0.030000 0.098349
vt 0.439570 0.053269
vt 0.490558 0.053270
vt 0.490558 0.078381
vt 0.439570 0.078380
vt 0.129014 0.078380
vt 0.070274 0.078381
vt 0.070274 0.053269
vt 0.129014 0.053268
vt 0.196680 0.053268
vt 0.251949 0.053268
vt 0.251949 0.078379
vt 0.196680 0.078380
vt 0.294223 0.181330
vt 0.294244 0.105284
vt 0.395535 0.105312
vt 0.395514 0.181358
vt 0.503477 0.369446
vt 0.503477 0.293399
vt 0.422654 0.293399
vt 0.422654 0.369446
vt 0.384303 0.053268
vt 0.384302 0.078380
vt 0.310688 0.053268
vt 0.310688 0.078379
vt 0.213400 0.181308
vt 0.213421 0.105261
vt 0.604769 0.369446
vt 0.604769 0.293399
vt 0.015238 0.053269
vt 0.015238 0.078381
vt 0.294197 0.274434
vt 0.363429 0.243750
vt 0.503477 0.462550
vt 0.422654 0.462550
vt 0.213374 0.274412
vt 0.572701 0.431846
vt 0.066226 0.015482
vt 0.066227 0.040594
vt 0.015240 0.040598
vt 0.015238 0.015486
vt 0.435522 0.015482
vt 0.435521 0.040595
vt 0.376780 0.040592
vt 0.376781 0.015480
vt 0.309114 0.015477
vt 0.309114 0.040589
vt 0.253846 0.040588
vt 0.253846 0.015477
vt 0.095726 0.373927
vt 0.095727 0.475219
vt 0.019680 0.475219
vt 0.019680 0.373927
vt 0.710754 0.368629
vt 0.629931 0.368629
vt 0.629931 0.292582
vt 0.710754 0.292582
vt 0.121493 0.015479
vt 0.121494 0.040590
vt 0.195108 0.015477
vt 0.195108 0.040588
vt 0.095727 0.293104
vt 0.019680 0.293104
vt 0.812046 0.368629
vt 0.812046 0.292582
vt 0.490560 0.015485
vt 0.490558 0.040598
vt 0.188831 0.373927
vt 0.158127 0.443151
vt 0.710754 0.461733
vt 0.629931 0.461733
vt 0.188831 0.293104
vt 0.779978 0.431029
vt 0.565287 0.078267
vt 0.565287 0.053157
vt 0.514300 0.053158
vt 0.514301 0.078268
vt 0.934582 0.078268
vt 0.934582 0.053155
vt 0.875840 0.053155
vt 0.875839 0.078268
vt 0.808172 0.078267
vt 0.808173 0.053154
vt 0.752904 0.053155
vt 0.752904 0.078266
vt 0.098037 0.179784
vt 0.098002 0.271045
vt 0.021955 0.271021
vt 0.021990 0.179761
vt 0.709839 0.175701
vt 0.629016 0.175701
vt 0.629016 0.099654
vt 0.709839 0.099654
vt 0.620553 0.078267
vt 0.620553 0.053156
vt 0.694166 0.078266
vt 0.694166 0.053155
vt 0.098064 0.106966
vt 0.022018 0.106942
vt 0.811131 0.175701
vt 0.811131 0.099654
vt 0.989621 0.078268
vt 0.989621 0.053155
vt 0.191141 0.179813
vt 0.160413 0.242172
vt 0.709839 0.268805
vt 0.629016 0.268805
vt 0.191169 0.106995
vt 0.779063 0.238101
vt 0.565290 0.040614
vt 0.514300 0.040615
vt 0.514300 0.015503
vt 0.565290 0.015502
vt 0.934585 0.040612
vt 0.875846 0.040612
vt 0.875846 0.015501
vt 0.934585 0.015500
vt 0.808182 0.040613
vt 0.752915 0.040613
vt 0.752915 0.015502
vt 0.808182 0.015502
vt 0.504057 0.179103
vt 0.504057 0.103057
vt 0.605349 0.103057
vt 0.605349 0.179103
vt 0.293192 0.371046
vt 0.293192 0.294999
vt 0.212369 0.294999
vt 0.212369 0.371046
vt 0.620559 0.040614
vt 0.620559 0.015502
vt 0.694175 0.040614
vt 0.694175 0.015502
vt 0.423234 0.179104
vt 0.423234 0.103057
vt 0.394484 0.371046
vt 0.394484 0.294999
vt 0.989621 0.040611
vt 0.989621 0.015500
vt 0.504057 0.272207
vt 0.573281 0.241504
vt 0.293192 0.464150
vt 0.212369 0.464150
vt 0.423235 0.272208
vt 0.362416 0.433446
vt 0.484225 0.953910
vt 0.253256 0.953910
vt 0.253256 0.722941
vt 0.484225 0.722941
vt 0.012705 0.977854
vt 0.012705 0.963324
vt 0.254869 0.963338
vt 0.254868 0.977869
vt 0.514716 0.953910
vt 0.514716 0.722941
vt 0.745685 0.722941
vt 0.745685 0.953910
vt 0.497075 0.977875
vt 0.497075 0.963342
vt 0.484225 0.491972
vt 0.253256 0.491972
vt 0.981558 0.977859
vt 0.739309 0.977872
vt 0.739308 0.963337
vt 0.981557 0.963324
vt 0.514716 0.491972
vt 0.745685 0.491972
vt 0.022287 0.953910
vt 0.022287 0.722941
vt 0.012705 0.978394
vt 0.254904 0.978392
vt 0.254904 0.992924
vt 0.012705 0.992926
vt 0.976654 0.953910
vt 0.976654 0.722941
vt 0.497112 0.978390
vt 0.497112 0.992923
vt 0.022287 0.491972
vt 0.981557 0.978393
vt 0.981556 0.992927
vt 0.739329 0.992923
vt 0.739329 0.978390
vt 0.976654 0.491972
vn 0.8894 0.0000 0.4571
vn -0.0101 0.0000 0.9999
vn -1.0000 0.0000 0.0000
vn 0.0000 -1.0000 -0.0000
vn 0.0000 1.0000 -0.0000
vn 0.9999 0.0000 0.0112
vn 0.0000 0.0000 -1.0000
vn 0.4054 0.0000 0.9141
vn -0.8894 0.0000 0.4571
vn 0.0101 0.0000 0.9999
vn 1.0000 0.0000 0.0000
vn -0.9999 0.0000 -0.0106
vn -0.4054 0.0000 0.9141
vn 0.8894 0.0000 -0.4571
vn -0.0188 0.0000 -0.9998
vn 0.0000 -1.0000 -0.0020
vn 0.0019 1.0000 0.0000
vn 0.0000 1.0000 -0.0020
vn 0.9998 0.0000 0.0187
vn 0.0000 0.0000 1.0000
vn 0.0018 -1.0000 -0.0020
vn 0.4054 0.0000 -0.9141
vn 0.0019 -1.0000 0.0000
vn -0.8894 0.0000 -0.4571
vn -0.0107 0.0000 -0.9999
vn -0.9999 0.0000 0.0106
vn -0.4054 0.0000 -0.9141
usemtl Iron_PlateIr
s off
f 31/1/1 16/2/1 7/3/1
f 31/1/1 7/3/1 33/4/1
f 1/5/2 25/6/2 23/7/2
f 1/5/2 23/7/2 10/8/2
f 27/9/3 12/10/3 3/11/3
f 27/9/3 3/11/3 29/12/3
f 35/13/4 21/14/4 5/15/4
f 35/13/4 5/15/4 34/16/4
f 36/17/5 19/18/5 13/19/5
f 36/17/5 13/19/5 28/20/5
f 14/21/6 31/1/6 33/4/6
f 14/21/6 33/4/6 6/22/6
f 20/23/7 14/21/7 6/22/7
f 20/23/7 6/22/7 22/24/7
f 30/25/4 4/26/4 21/14/4
f 30/25/4 21/14/4 35/13/4
f 32/27/5 15/28/5 19/18/5
f 32/27/5 19/18/5 36/17/5
f 12/10/7 20/23/7 22/24/7
f 12/10/7 22/24/7 3/11/7
f 17/29/8 23/7/8 25/6/8
f 17/29/8 25/6/8 8/30/8
f 26/31/4 35/13/4 34/16/4
f 26/31/4 34/16/4 9/32/4
f 24/33/5 36/17/5 28/20/5
f 24/33/5 28/20/5 11/34/5
f 2/35/4 30/25/4 35/13/4
f 2/35/4 35/13/4 26/31/4
f 18/36/5 32/27/5 36/17/5
f 18/36/5 36/17/5 24/33/5
f 29/12/3 1/5/3 10/8/3
f 29/12/3 10/8/3 27/9/3
f 67/37/9 69/38/9 43/39/9
f 67/37/9 43/39/9 52/40/9
f 59/41/10 61/42/10 37/43/10
f 59/41/10 37/43/10 46/44/10
f 63/45/11 65/46/11 39/47/11
f 63/45/11 39/47/11 48/48/11
f 71/49/4 70/50/4 41/51/4
f 71/49/4 41/51/4 57/52/4
f 72/53/5 64/54/5 49/55/5
f 72/53/5 49/55/5 55/56/5
f 50/57/12 42/58/12 69/38/12
f 50/57/12 69/38/12 67/37/12
f 56/59/7 58/60/7 42/58/7
f 56/59/7 42/58/7 50/57/7
f 66/61/4 71/49/4 57/52/4
f 66/61/4 57/52/4 40/62/4
f 68/63/5 72/53/5 55/56/5
f 68/63/5 55/56/5 51/64/5
f 48/48/7 39/47/7 58/60/7
f 48/48/7 58/60/7 56/59/7
f 53/65/13 44/66/13 61/42/13
f 53/65/13 61/42/13 59/41/13
f 62/67/4 45/68/4 70/50/4
f 62/67/4 70/50/4 71/49/4
f 60/69/5 47/70/5 64/54/5
f 60/69/5 64/54/5 72/53/5
f 38/71/4 62/67/4 71/49/4
f 38/71/4 71/49/4 66/61/4
f 54/72/5 60/69/5 72/53/5
f 54/72/5 72/53/5 68/63/5
f 46/44/11 37/43/11 65/46/11
f 46/44/11 65/46/11 63/45/11
f 103/73/14 105/74/14 79/75/14
f 103/73/14 79/75/14 88/76/14
f 95/77/15 97/78/15 73/79/15
f 95/77/15 73/79/15 82/80/15
f 99/81/3 101/82/3 75/83/3
f 99/81/3 75/83/3 84/84/3
f 107/85/16 106/86/16 77/87/16
f 107/85/16 77/87/16 93/88/16
f 108/89/17 100/90/17 85/91/17
f 108/89/18 85/91/18 91/92/18
f 86/93/19 78/94/19 105/74/19
f 86/93/19 105/74/19 103/73/19
f 92/95/20 94/96/20 78/94/20
f 92/95/20 78/94/20 86/93/20
f 102/97/21 107/85/21 93/88/21
f 102/97/4 93/88/4 76/98/4
f 104/99/18 108/89/18 91/92/18
f 104/99/18 91/92/18 87/100/18
f 84/84/20 75/83/20 94/96/20
f 84/84/20 94/96/20 92/95/20
f 89/101/22 80/102/22 97/78/22
f 89/101/22 97/78/22 95/77/22
f 98/103/4 81/104/4 106/86/4
f 98/103/4 106/86/4 107/85/4
f 96/105/17 83/106/17 100/90/17
f 96/105/17 100/90/17 108/89/17
f 74/107/23 98/103/23 107/85/23
f 74/107/23 107/85/23 102/97/23
f 90/108/5 96/105/5 108/89/5
f 90/108/5 108/89/5 104/99/5
f 82/80/3 73/79/3 101/82/3
f 82/80/3 101/82/3 99/81/3
f 139/109/24 124/110/24 115/111/24
f 139/109/24 115/111/24 141/112/24
f 131/113/25 118/114/25 109/115/25
f 131/113/25 109/115/25 133/116/25
f 135/117/11 120/118/11 111/119/11
f 135/117/11 111/119/11 137/120/11
f 143/121/4 129/122/4 113/123/4
f 143/121/4 113/123/4 142/124/4
f 144/125/5 127/126/5 121/127/5
f 144/125/5 121/127/5 136/128/5
f 122/129/26 139/109/26 141/112/26
f 122/129/26 141/112/26 114/130/26
f 128/131/20 122/129/20 114/130/20
f 128/131/20 114/130/20 130/132/20
f 138/133/4 112/134/4 129/122/4
f 138/133/4 129/122/4 143/121/4
f 140/135/5 123/136/5 127/126/5
f 140/135/5 127/126/5 144/125/5
f 120/118/20 128/131/20 130/132/20
f 120/118/20 130/132/20 111/119/20
f 125/137/27 131/113/27 133/116/27
f 125/137/27 133/116/27 116/138/27
f 134/139/4 143/121/4 142/124/4
f 134/139/4 142/124/4 117/140/4
f 132/141/5 144/125/5 136/128/5
f 132/141/5 136/128/5 119/142/5
f 110/143/4 138/133/4 143/121/4
f 110/143/4 143/121/4 134/139/4
f 126/144/5 140/135/5 144/125/5
f 126/144/5 144/125/5 132/141/5
f 118/114/11 135/117/11 137/120/11
f 118/114/11 137/120/11 109/115/11
f 145/145/5 159/146/5 174/147/5
f 145/145/5 174/147/5 151/148/5
f 164/149/3 160/150/3 146/151/3
f 164/149/3 146/151/3 147/152/3
f 148/153/4 155/154/4 182/155/4
f 148/153/4 182/155/4 165/156/4
f 156/157/7 147/152/7 146/151/7
f 156/157/7 146/151/7 152/158/7
f 149/159/5 151/148/5 174/147/5
f 149/159/5 174/147/5 171/160/5
f 179/161/11 153/162/11 150/163/11
f 179/161/11 150/163/11 172/164/11
f 154/165/4 180/166/4 182/155/4
f 154/165/4 182/155/4 155/154/4
f 156/157/7 152/158/7 150/163/7
f 156/157/7 150/163/7 153/162/7
f 157/167/5 169/168/5 174/147/5
f 157/167/5 174/147/5 159/146/5
f 166/169/3 162/170/3 158/171/3
f 166/169/3 158/171/3 161/172/3
f 163/173/4 165/156/4 182/155/4
f 163/173/4 182/155/4 177/174/4
f 178/175/20 170/176/20 158/171/20
f 178/175/20 158/171/20 162/170/20
f 167/177/5 171/160/5 174/147/5
f 167/177/5 174/147/5 169/168/5
f 181/178/11 173/179/11 168/180/11
f 181/178/11 168/180/11 175/181/11
f 176/182/4 177/174/4 182/155/4
f 176/182/4 182/155/4 180/166/4
f 178/175/20 175/181/20 168/180/20
f 178/175/20 168/180/20 170/176/20
